<?xml version="1.0" encoding="utf-8"?>
<!-- Generator: Adobe Illustrator 21.0.0, SVG Export Plug-In . SVG Version: 6.00 Build 0)  -->
<svg version="1.1" id="Capa_1" xmlns="http://www.w3.org/2000/svg" xmlns:xlink="http://www.w3.org/1999/xlink" x="0px" y="0px"
	 viewBox="0 0 512 512" style="enable-background:new 0 0 512 512;" xml:space="preserve">
<style type="text/css">
	.st0{fill:#161616;}
</style>
<path d="M229.4,285.6c-65.3-77.3-79.1-181-44.8-269.1c3.9-10-6.2-19.8-16-15.4c-23,10.3-45,24.1-65.1,41.4
	C-8,138.4-21.3,304.9,73.5,417.2c95.1,112.7,263.6,127,376.4,31.8c19.6-16.5,36.2-35.3,49.8-55.6c6-8.9-2-20.5-12.5-18.4
	C394.5,394,294.7,363,229.4,285.6z"/>
<g>
	<path class="st0" d="M177.7,284.3c57.2,67.8,141,100,223.3,94.1c-64.5-7.9-126.3-39.2-171.5-92.8c-65.3-77.3-79.1-181-44.8-269.1
		c3.9-10-6.2-19.8-16-15.4c-13.2,5.9-26,12.9-38.3,21.1C99.4,108.8,114.1,209,177.7,284.3z"/>
	<path class="st0" d="M487.2,375c-12.7,2.6-25.6,4.3-38.5,5c1.9,3.6,2,8.1-0.7,12.1c-13.6,20.3-30.2,39.1-49.8,55.6
		c-44.9,37.9-98.7,58.4-153.1,62.3c71.2,8.7,145.7-11.1,204.8-61c19.6-16.5,36.2-35.3,49.8-55.6C505.7,384.5,497.7,372.9,487.2,375z
		"/>
</g>
</svg>
